<svg xmlns="http://www.w3.org/2000/svg" width="180" height="180" viewBox="0 0 180 180">
  <!-- Background with rounded corners for iOS -->
  <defs>
    <linearGradient id="bg" x1="0%" y1="0%" x2="100%" y2="100%">
      <stop offset="0%" style="stop-color:#0f172a;stop-opacity:1" />
      <stop offset="100%" style="stop-color:#1e293b;stop-opacity:1" />
    </linearGradient>
    <linearGradient id="bookGradient" x1="0%" y1="0%" x2="100%" y2="100%">
      <stop offset="0%" style="stop-color:#22c55e;stop-opacity:1" />
      <stop offset="100%" style="stop-color:#16a34a;stop-opacity:1" />
    </linearGradient>
    <linearGradient id="sparkle" x1="0%" y1="0%" x2="100%" y2="100%">
      <stop offset="0%" style="stop-color:#fbbf24;stop-opacity:1" />
      <stop offset="100%" style="stop-color:#f59e0b;stop-opacity:1" />
    </linearGradient>
    <clipPath id="roundedCorners">
      <rect x="0" y="0" width="180" height="180" rx="32" ry="32"/>
    </clipPath>
  </defs>
  
  <!-- Background with rounded corners -->
  <rect x="0" y="0" width="180" height="180" rx="32" ry="32" fill="url(#bg)"/>
  
  <g clip-path="url(#roundedCorners)">
    <!-- Open book -->
    <g transform="translate(32, 56) scale(5.5)">
      <!-- Left page -->
      <path d="M0 2 C0 2, 4 0, 10 2 L10 14 C4 12, 0 14, 0 14 Z" fill="url(#bookGradient)" opacity="0.9"/>
      <!-- Right page -->
      <path d="M10 2 C16 0, 20 2, 20 2 L20 14 C20 14, 16 12, 10 14 Z" fill="url(#bookGradient)" opacity="0.7"/>
      <!-- Book spine -->
      <line x1="10" y1="2" x2="10" y2="14" stroke="#16a34a" stroke-width="1"/>
      
      <!-- Text lines on left page -->
      <line x1="2" y1="5" x2="8" y2="5" stroke="#0f172a" stroke-width="0.5" opacity="0.6"/>
      <line x1="2" y1="7" x2="7" y2="7" stroke="#0f172a" stroke-width="0.5" opacity="0.6"/>
      <line x1="2" y1="9" x2="8" y2="9" stroke="#0f172a" stroke-width="0.5" opacity="0.6"/>
      
      <!-- Text lines on right page -->
      <line x1="12" y1="5" x2="18" y2="5" stroke="#0f172a" stroke-width="0.5" opacity="0.4"/>
      <line x1="12" y1="7" x2="17" y2="7" stroke="#0f172a" stroke-width="0.5" opacity="0.4"/>
      <line x1="12" y1="9" x2="18" y2="9" stroke="#0f172a" stroke-width="0.5" opacity="0.4"/>
    </g>
    
    <!-- Magic sparkles -->
    <g fill="url(#sparkle)">
      <!-- Top right sparkle -->
      <g transform="translate(135, 45) scale(2.5)">
        <path d="M0 -2 L1 -1 L2 0 L1 1 L0 2 L-1 1 L-2 0 L-1 -1 Z" opacity="0.8"/>
      </g>
      <!-- Bottom left sparkle -->
      <g transform="translate(45, 135) scale(2.5)">
        <path d="M0 -1.5 L0.7 -0.7 L1.5 0 L0.7 0.7 L0 1.5 L-0.7 0.7 L-1.5 0 L-0.7 -0.7 Z" opacity="0.9"/>
      </g>
      <!-- Small sparkles -->
      <circle cx="50" cy="39" r="5" opacity="0.6"/>
      <circle cx="140" cy="140" r="4" opacity="0.7"/>
      <circle cx="32" cy="72" r="3" opacity="0.5"/>
      <circle cx="148" cy="108" r="3.5" opacity="0.6"/>
    </g>
    
    <!-- Adventure compass rose -->
    <g transform="translate(135, 135) scale(2.5)" opacity="0.6">
      <circle cx="0" cy="0" r="3" fill="none" stroke="#22c55e" stroke-width="0.5"/>
      <path d="M0 -2 L0.5 0 L0 2 L-0.5 0 Z" fill="#22c55e"/>
      <path d="M-2 0 L0 -0.5 L2 0 L0 0.5 Z" fill="#16a34a"/>
    </g>
  </g>
</svg>
